<?xml version="1.0" encoding="UTF-8" standalone="no"?>
<!DOCTYPE svg PUBLIC "-//W3C//DTD SVG 1.1//EN" "http://www.w3.org/Graphics/SVG/1.1/DTD/svg11.dtd">
<svg width="100%" height="100%" viewBox="0 0 925 337" version="1.1" xmlns="http://www.w3.org/2000/svg" xmlns:xlink="http://www.w3.org/1999/xlink" xml:space="preserve" xmlns:serif="http://www.serif.com/" style="fill-rule:evenodd;clip-rule:evenodd;stroke-linejoin:round;stroke-miterlimit:2;">
    <g transform="matrix(1,0,0,1,-1311,-2154)">
        <g id="Capa-1" serif:id="Capa 1" transform="matrix(4.16667,0,0,4.16667,0,0)">
            <g>
                <g>
                    <g transform="matrix(1,0,0,1,382.484,563.47)">
                        <path d="M0,0.189C-0.086,0.727 -0.188,1.25 -0.301,1.772C-0.318,1.74 -0.334,1.703 -0.355,1.67C-0.813,0.9 -1.459,0.221 -2.246,-0.318C-2.182,-0.738 -2.133,-1.158 -2.095,-1.583C-1.303,-1.115 -0.587,-0.517 0,0.189" style="fill-rule:nonzero;"/>
                    </g>
                    <g transform="matrix(1,0,0,1,382.183,567.947)">
                        <path d="M0,-2.705C-0.356,-1.046 -0.873,0.56 -1.524,2.09L-4.04,2.09C-3.017,-0.055 -2.3,-2.365 -1.945,-4.795C-1.158,-4.256 -0.512,-3.577 -0.054,-2.807C-0.033,-2.774 -0.017,-2.737 0,-2.705" style="fill-rule:nonzero;"/>
                    </g>
                    <g transform="matrix(1,0,0,1,380.502,563.643)">
                        <path d="M0,-3C0.808,-2.58 1.53,-2.063 2.16,-1.46C2.111,-0.964 2.058,-0.469 1.982,0.017C1.395,-0.689 0.679,-1.287 -0.113,-1.756C-0.076,-2.171 -0.049,-2.591 -0.027,-3.017C-0.022,-3.011 -0.011,-3.006 0,-3" style="fill-rule:nonzero;"/>
                    </g>
                    <g transform="matrix(1,0,0,1,362.893,559.657)">
                        <path d="M0,6.776L-6.658,1.233L-6.664,0.194C-4.18,0.194 -1.929,-0.808 -0.286,-2.424C0.317,-2.058 1.013,-1.664 1.896,-1.626C3.113,-1.573 4.062,-2.241 4.826,-2.774C5.349,-3.135 5.839,-3.48 6.286,-3.534C6.857,-3.604 7.552,-3.195 8.273,-2.742C9.75,-1.804 11.279,-0.835 12.529,0.355C12.631,0.453 12.734,0.554 12.831,0.657C13.181,0.997 13.542,1.352 13.978,1.67C14.56,2.095 15.174,2.376 15.767,2.645C16.03,2.763 16.3,2.881 16.553,3.016C16.833,3.162 17.097,3.324 17.345,3.496C16.989,5.925 16.273,8.236 15.25,10.38L11.667,10.38L11.667,8.63L6.711,4.476L1.88,8.457L1.88,10.38L0,10.38L0,6.776Z" style="fill:rgb(85,180,100);fill-rule:nonzero;"/>
                    </g>
                    <g transform="matrix(-1,0,0,1,378.083,570.037)">
                        <path d="M-2.052,1.142L0.523,1.142C0.318,0.77 0.124,0.388 -0.059,0L-2.575,0C-2.408,0.382 -2.236,0.765 -2.052,1.142" style="fill-rule:nonzero;"/>
                    </g>
                    <g transform="matrix(-0.333444,-0.94277,-0.94277,0.333444,377.432,570.415)">
                        <path d="M-1.622,-2.293C-1.925,-1.987 -2.219,-1.671 -2.505,-1.353L-1.622,1.146C-1.344,0.802 -1.059,0.462 -0.763,0.134L-1.622,-2.293Z" style="fill-rule:nonzero;"/>
                    </g>
                    <g transform="matrix(1,0,0,1,372.271,575.379)">
                        <path d="M0,-3.053L4.622,-3.053C0.35,3.852 -7.288,8.468 -15.988,8.468C-24.687,8.468 -32.331,3.852 -36.602,-3.053L-31.776,-3.053L-31.776,-6.161L-29.25,-8.079L-26.567,-5.999L-26.567,-3.053L-20.21,-3.053L-20.21,-8.106L-16.047,-11.521L-11.667,-7.868L-11.667,-3.053L-5.204,-3.053L-5.204,-6.188L-2.677,-8.273L0,-6.027L0,-3.053Z" style="fill:rgb(189,148,99);fill-rule:nonzero;"/>
                    </g>
                    <g transform="matrix(1,0,0,1,380.474,554.944)">
                        <path d="M0,5.682C-0.021,6.108 -0.048,6.528 -0.086,6.943C-0.221,6.862 -0.361,6.786 -0.5,6.711C-1.309,6.291 -2.192,5.994 -2.93,5.456C-3.42,5.106 -3.83,4.659 -4.261,4.244C-5.586,2.973 -7.148,1.987 -8.699,1.006C-9.529,0.479 -10.45,-0.071 -11.43,0.042C-12.981,0.226 -14.075,2.008 -15.637,1.939C-16.165,1.917 -16.634,1.685 -17.092,1.416C-16.849,1.12 -16.634,0.802 -16.44,0.473C-16.127,0.651 -15.847,0.786 -15.594,0.796C-15.142,0.824 -14.646,0.468 -14.064,0.059C-13.364,-0.426 -12.578,-0.975 -11.56,-1.094C-10.137,-1.261 -8.898,-0.48 -8.085,0.037C-6.512,1.034 -4.885,2.063 -3.469,3.414C-3.361,3.522 -3.248,3.63 -3.14,3.738C-2.838,4.034 -2.553,4.314 -2.257,4.53C-1.864,4.815 -1.379,5.036 -0.867,5.273C-0.576,5.402 -0.285,5.536 0,5.682" style="fill-rule:nonzero;"/>
                    </g>
                    <g transform="matrix(1,0,0,1,363.674,555.999)">
                        <path d="M0,-0.797C0.124,-0.722 0.248,-0.647 0.361,-0.582C0.167,-0.253 -0.048,0.064 -0.291,0.361C-0.62,0.167 -0.942,-0.043 -1.282,-0.221C-1.034,-0.518 -0.813,-0.829 -0.62,-1.158C-0.398,-1.04 -0.194,-0.916 0,-0.797" style="fill-rule:nonzero;"/>
                    </g>
                    <g transform="matrix(1,0,0,1,380.388,556.139)">
                        <path d="M0,5.748C-0.038,6.174 -0.086,6.594 -0.151,7.014C-0.398,6.842 -0.663,6.68 -0.943,6.534C-1.196,6.399 -1.465,6.281 -1.729,6.163C-2.322,5.894 -2.936,5.613 -3.518,5.187C-3.954,4.87 -4.315,4.515 -4.665,4.175C-4.762,4.072 -4.864,3.971 -4.966,3.873C-6.216,2.683 -7.746,1.714 -9.222,0.776C-9.944,0.323 -10.639,-0.086 -11.209,-0.016C-11.657,0.038 -12.147,0.383 -12.669,0.744C-13.434,1.277 -14.382,1.945 -15.6,1.892C-16.483,1.853 -17.178,1.46 -17.781,1.094C-17.501,0.819 -17.243,0.528 -17.006,0.222C-16.548,0.49 -16.079,0.723 -15.551,0.744C-13.989,0.813 -12.896,-0.969 -11.344,-1.152C-10.364,-1.266 -9.443,-0.716 -8.613,-0.189C-7.062,0.792 -5.5,1.778 -4.175,3.049C-3.744,3.464 -3.334,3.911 -2.844,4.262C-2.106,4.8 -1.223,5.097 -0.415,5.517C-0.275,5.592 -0.135,5.667 0,5.748" style="fill-rule:nonzero;"/>
                    </g>
                    <g transform="matrix(1,0,0,1,361.552,556.343)">
                        <path d="M0,0.324C0.301,0.05 0.587,-0.247 0.84,-0.565C1.18,-0.387 1.502,-0.177 1.831,0.017C1.594,0.324 1.336,0.615 1.056,0.889C1.013,0.863 0.975,0.842 0.932,0.814C0.619,0.62 0.329,0.442 0.054,0.341C0.038,0.335 0.016,0.33 0,0.324" style="fill-rule:nonzero;"/>
                    </g>
                    <g transform="matrix(1,0,0,1,362.419,555.632)">
                        <path d="M0,-1.087C0.226,-1.001 0.436,-0.899 0.635,-0.791C0.441,-0.462 0.221,-0.15 -0.027,0.146C-0.151,0.087 -0.275,0.028 -0.404,-0.021C-0.679,-0.123 -0.954,-0.188 -1.239,-0.215C-0.943,-0.527 -0.679,-0.866 -0.442,-1.233C-0.296,-1.19 -0.146,-1.141 0,-1.087" style="fill-rule:nonzero;"/>
                    </g>
                    <g transform="matrix(1,0,0,1,361.552,555.417)">
                        <path d="M0,1.25C-0.566,1.051 -1.234,1.1 -1.934,1.239C-1.352,0.905 -0.824,0.485 -0.372,0C-0.086,0.027 0.188,0.092 0.463,0.194C0.592,0.243 0.716,0.302 0.84,0.361C0.587,0.679 0.301,0.976 0,1.25" style="fill-rule:nonzero;"/>
                    </g>
                    <g transform="matrix(1,0,0,1,358.411,557.27)">
                        <path d="M0,-0.323C0.404,-0.43 0.808,-0.533 1.207,-0.614C0.21,-0.038 -0.948,0.291 -2.182,0.291C-2.44,0.291 -2.693,0.275 -2.946,0.242C-1.944,0.14 -0.986,-0.07 -0.162,-0.286L0,-0.323Z" style="fill:rgb(85,180,100);fill-rule:nonzero;"/>
                    </g>
                    <g transform="matrix(1,0,0,1,335.669,586.138)">
                        <path d="M0,-13.812C4.271,-6.907 11.915,-2.291 20.614,-2.291C29.314,-2.291 36.952,-6.907 41.224,-13.812L43.874,-13.812C39.365,-5.592 30.634,0 20.614,0C10.595,0 1.858,-5.592 -2.65,-13.812L0,-13.812Z" style="fill-rule:nonzero;"/>
                    </g>
                    <g transform="matrix(1,0,0,1,357.964,556.925)">
                        <path d="M0,-1.044C1.051,-1.319 2.16,-1.632 3.216,-1.508C2.764,-1.023 2.236,-0.603 1.654,-0.269C1.255,-0.188 0.851,-0.085 0.447,0.022L0.286,0.06C-0.539,0.275 -1.497,0.485 -2.499,0.588C-3.797,0.448 -4.982,-0.064 -5.952,-0.834C-4.115,-0.22 -1.939,-0.543 0,-1.044" style="fill-rule:nonzero;"/>
                    </g>
                    <g transform="matrix(1,0,0,1,359.618,558.516)">
                        <path d="M0,-1.859C0.7,-1.999 1.368,-2.047 1.934,-1.848C0.522,-0.583 -1.341,0.188 -3.388,0.188C-5.182,0.188 -6.835,-0.405 -8.166,-1.407C-6.868,-0.922 -5.467,-0.868 -4.153,-1.003C-3.9,-0.97 -3.646,-0.954 -3.388,-0.954C-2.155,-0.954 -0.997,-1.283 0,-1.859" style="fill:rgb(85,180,100);fill-rule:nonzero;"/>
                    </g>
                    <g transform="matrix(1,0,0,1,361.977,545.107)">
                        <path d="M0,9.293C-1.433,8.91 -2.866,9.287 -4.147,9.621L-4.304,9.664C-7.358,10.456 -9.411,10.332 -10.773,9.276C-11,9.105 -11.226,8.899 -11.452,8.695C-11.646,8.522 -11.851,8.339 -12.071,8.161C-12.384,7.386 -12.556,6.535 -12.556,5.647C-12.556,1.892 -9.502,-1.163 -5.748,-1.163C-1.993,-1.163 1.061,1.892 1.061,5.647C1.061,6.987 0.673,8.237 0,9.293" style="fill:rgb(230,192,55);fill-rule:nonzero;"/>
                    </g>
                    <g transform="matrix(1,0,0,1,349.906,555.192)">
                        <path d="M0,-1.924C0.441,-0.803 1.174,0.167 2.106,0.899C1.567,0.716 1.061,0.457 0.598,0.097C0.091,-0.297 -0.42,-0.82 -0.954,-1.223C-1.18,-1.73 -1.352,-2.269 -1.471,-2.823C-0.927,-2.624 -0.437,-2.284 0,-1.924" style="fill-rule:nonzero;"/>
                    </g>
                    <g transform="matrix(1,0,0,1,351.451,554.508)">
                        <path d="M0,2.601C-1.077,1.793 -1.945,0.71 -2.5,-0.539C-1.966,-0.135 -1.455,0.387 -0.948,0.781C-0.485,1.141 0.021,1.4 0.56,1.583C1.53,2.354 2.715,2.866 4.013,3.005C2.699,3.14 1.298,3.086 0,2.601" style="fill-rule:nonzero;"/>
                    </g>
                    <g transform="matrix(1,0,0,1,357.829,555.246)">
                        <path d="M0,-0.518C1.282,-0.852 2.715,-1.229 4.147,-0.846C3.911,-0.48 3.646,-0.141 3.35,0.171C2.294,0.047 1.185,0.36 0.134,0.635C-1.805,1.136 -3.981,1.46 -5.818,0.845C-6.75,0.113 -7.482,-0.857 -7.924,-1.978C-7.703,-1.8 -7.499,-1.617 -7.305,-1.444C-7.078,-1.24 -6.852,-1.035 -6.626,-0.863C-5.263,0.193 -3.21,0.317 -0.156,-0.475L0,-0.518Z" style="fill-rule:nonzero;"/>
                    </g>
                    <g transform="matrix(1,0,0,1,361.977,543.238)">
                        <path d="M0,11.162C0.673,10.106 1.061,8.856 1.061,7.516C1.061,3.761 -1.993,0.706 -5.748,0.706C-9.502,0.706 -12.556,3.761 -12.556,7.516C-12.556,8.404 -12.384,9.255 -12.071,10.03C-12.508,9.67 -12.998,9.33 -13.542,9.131C-13.65,8.608 -13.704,8.07 -13.704,7.516C-13.704,3.12 -10.143,-0.441 -5.748,-0.441C-1.352,-0.441 2.208,3.12 2.208,7.516C2.208,9.013 1.794,10.413 1.077,11.603C0.878,11.496 0.668,11.393 0.442,11.308C0.296,11.254 0.146,11.205 0,11.162" style="fill-rule:nonzero;"/>
                    </g>
                    <g transform="matrix(1,0,0,1,361.605,557.89)">
                        <path d="M0,-1.206C0.275,-1.104 0.565,-0.927 0.878,-0.732C0.921,-0.705 0.959,-0.684 1.002,-0.657C-0.641,0.959 -2.893,1.961 -5.376,1.961C-8.969,1.961 -12.082,-0.135 -13.558,-3.167C-13.289,-2.978 -12.971,-2.704 -12.61,-2.381C-12.352,-2.149 -12.082,-1.912 -11.802,-1.696C-11.285,-1.293 -10.73,-0.996 -10.154,-0.781C-8.823,0.221 -7.169,0.814 -5.376,0.814C-3.329,0.814 -1.465,0.043 -0.054,-1.223C-0.038,-1.217 -0.016,-1.212 0,-1.206" style="fill:rgb(85,180,100);fill-rule:nonzero;"/>
                    </g>
                    <g transform="matrix(1,0,0,1,356.229,555.418)">
                        <path d="M0,-13.768C5.015,-13.768 9.098,-9.685 9.098,-4.664C9.098,-2.962 8.629,-1.363 7.805,0C7.692,-0.065 7.568,-0.14 7.444,-0.215C7.25,-0.334 7.046,-0.458 6.825,-0.577C7.542,-1.767 7.956,-3.167 7.956,-4.664C7.956,-9.06 4.396,-12.621 0,-12.621C-4.396,-12.621 -7.956,-9.06 -7.956,-4.664C-7.956,-4.11 -7.902,-3.572 -7.794,-3.049C-8.161,-3.189 -8.559,-3.264 -8.979,-3.227C-9.06,-3.696 -9.098,-4.175 -9.098,-4.664C-9.098,-9.685 -5.015,-13.768 0,-13.768" style="fill-rule:nonzero;"/>
                    </g>
                    <g transform="matrix(-0.722377,0.691499,0.691499,0.722377,349.318,553.102)">
                        <path d="M0.864,-2.088C0.535,-1.824 0.298,-1.494 0.131,-1.14C0.428,-0.657 0.676,-0.149 0.864,0.374C0.952,-0.204 1.116,-0.726 1.471,-1.087C1.291,-1.43 1.089,-1.767 0.864,-2.088" style="fill-rule:nonzero;"/>
                    </g>
                    <g transform="matrix(1,0,0,1,348.952,556.473)">
                        <path d="M0,-2.504C0.555,-1.255 1.422,-0.172 2.5,0.636C1.923,0.421 1.368,0.124 0.851,-0.279C0.571,-0.495 0.302,-0.733 0.043,-0.964C-0.318,-1.287 -0.636,-1.562 -0.905,-1.75C-1.126,-2.197 -1.304,-2.66 -1.449,-3.14C-0.942,-3.124 -0.463,-2.86 0,-2.504" style="fill-rule:nonzero;"/>
                    </g>
                    <g transform="matrix(1,0,0,1,340.296,569.127)">
                        <path d="M0,-14.372C0.722,-14.997 1.961,-15.282 2.709,-14.646C2.779,-14.582 2.85,-14.518 2.919,-14.453C3.227,-14.151 3.652,-13.736 4.309,-13.601C5.284,-13.402 6.022,-13.946 6.507,-14.302C6.696,-14.442 6.884,-14.582 7.013,-14.631C7.208,-14.701 7.455,-14.609 7.751,-14.404C9.228,-11.372 12.341,-9.276 15.934,-9.276L15.939,-8.237L9.475,-2.941L9.475,0.91L7.697,0.91L7.697,-0.868L2.742,-4.714L-2.09,-1.046L-2.09,0.91L-5.877,0.91C-6.636,-0.68 -7.224,-2.365 -7.622,-4.116C-7.18,-4.698 -7.019,-5.388 -6.884,-5.964C-6.787,-6.4 -6.68,-6.852 -6.491,-7.03C-6.432,-7.09 -6.324,-7.159 -6.206,-7.235C-5.963,-7.396 -5.656,-7.596 -5.392,-7.914C-5.01,-8.382 -4.875,-8.899 -4.767,-9.314C-4.746,-9.394 -4.724,-9.481 -4.703,-9.561C-4.444,-10.44 -3.862,-10.935 -2.807,-11.587C-1.977,-12.104 -1.471,-12.713 -0.986,-13.306C-0.673,-13.683 -0.382,-14.038 0,-14.372" style="fill:rgb(85,180,100);fill-rule:nonzero;"/>
                    </g>
                    <g transform="matrix(1,0,0,1,367.067,562.371)">
                        <path d="M0,9.955L-6.464,9.955L-6.464,5.14L-10.843,1.487L-15.007,4.902L-15.007,9.955L-21.363,9.955L-21.363,7.009L-24.046,4.929L-26.572,6.847L-26.572,9.955L-31.398,9.955C-31.63,9.578 -31.856,9.195 -32.066,8.808L-27.714,8.808L-27.714,6.281L-24.041,3.485L-20.221,6.448L-20.221,8.808L-16.154,8.808L-16.154,4.358L-10.838,0L-5.322,4.601L-5.322,8.808L-1.147,8.808L-1.147,6.281L2.532,3.248L6.351,6.448L6.351,8.808L10.493,8.808C10.283,9.195 10.057,9.578 9.825,9.955L5.204,9.955L5.204,6.981L2.526,4.735L0,6.82L0,9.955Z" style="fill-rule:nonzero;"/>
                    </g>
                    <g transform="matrix(-0.500881,-0.865516,-0.865516,0.500881,333.073,571.214)">
                        <path d="M-0.935,-1.686C-1.376,-1.673 -1.82,-1.677 -2.262,-1.69L-0.935,0.604C-0.507,0.593 -0.075,0.573 0.355,0.543L-0.935,-1.686Z" style="fill-rule:nonzero;"/>
                    </g>
                    <g transform="matrix(1,0,0,1,361.745,565.097)">
                        <path d="M0,1.875L-5.516,-2.726L-10.833,1.633L-10.833,6.082L-14.899,6.082L-14.899,3.723L-18.719,0.76L-22.393,3.556L-22.393,6.082L-26.745,6.082C-26.95,5.71 -27.144,5.328 -27.327,4.94L-23.54,4.94L-23.54,2.984L-18.708,-0.684L-13.752,3.162L-13.752,4.94L-11.975,4.94L-11.975,1.089L-5.511,-4.207L1.147,1.336L1.147,4.94L3.027,4.94L3.027,3.017L7.859,-0.964L12.815,3.189L12.815,4.94L16.397,4.94C16.214,5.328 16.02,5.71 15.815,6.082L11.673,6.082L11.673,3.723L7.854,0.522L4.174,3.556L4.174,6.082L0,6.082L0,1.875Z" style="fill-rule:nonzero;"/>
                    </g>
                    <g transform="matrix(1,0,0,1,334.09,555.693)">
                        <path d="M0,6.199C-0.118,6.275 -0.226,6.345 -0.285,6.404C-0.474,6.582 -0.582,7.034 -0.679,7.47C-0.813,8.047 -0.975,8.736 -1.417,9.318C-1.573,8.629 -1.702,7.928 -1.799,7.218C-1.659,6.609 -1.514,5.995 -1.083,5.58C-0.77,5.284 -0.345,5.122 -0.07,4.794C0.216,4.443 0.28,3.98 0.404,3.55C0.792,2.24 1.697,1.556 2.796,0.872C3.959,0.15 4.379,-0.863 5.457,-1.8C6.583,-2.78 8.441,-3.119 9.658,-2.085C10.003,-1.789 10.299,-1.379 10.741,-1.288C11.517,-1.132 12.088,-1.999 12.826,-2.269C13.025,-2.344 13.224,-2.37 13.413,-2.36C13.558,-1.88 13.736,-1.417 13.957,-0.97C13.661,-1.175 13.413,-1.267 13.219,-1.197C13.09,-1.148 12.901,-1.008 12.712,-0.867C12.228,-0.512 11.49,0.032 10.515,-0.167C9.858,-0.302 9.432,-0.717 9.125,-1.019C9.055,-1.083 8.985,-1.148 8.915,-1.212C8.167,-1.848 6.927,-1.563 6.206,-0.938C5.823,-0.604 5.532,-0.248 5.22,0.129C4.735,0.721 4.229,1.33 3.399,1.847C2.343,2.499 1.762,2.994 1.503,3.873C1.481,3.953 1.46,4.04 1.438,4.12C1.331,4.535 1.196,5.053 0.813,5.52C0.55,5.839 0.243,6.038 0,6.199" style="fill-rule:nonzero;"/>
                    </g>
                    <g transform="matrix(1,0,0,1,332.674,570.037)">
                        <path d="M0,-5.026C0.398,-3.275 0.986,-1.589 1.745,0L-0.771,0C-1.223,-1.056 -1.6,-2.144 -1.912,-3.259C-1.32,-3.512 -0.975,-3.932 -0.743,-4.228C-0.641,-4.358 -0.549,-4.476 -0.463,-4.547C-0.28,-4.692 -0.129,-4.859 0,-5.026" style="fill-rule:nonzero;"/>
                    </g>
                    <g transform="matrix(1,0,0,1,333.395,555.228)">
                        <path d="M0,3.691C0.512,1.957 1.756,1.062 2.887,0.362C3.399,0.044 3.728,-0.355 4.148,-0.867C4.487,-1.276 4.87,-1.745 5.397,-2.203C6.847,-3.457 9.335,-3.991 11.097,-2.488C11.204,-2.396 11.312,-2.294 11.415,-2.192C11.484,-2.121 11.582,-2.03 11.651,-1.976C11.759,-2.036 11.932,-2.16 12.05,-2.25C12.352,-2.472 12.691,-2.719 13.127,-2.881C13.38,-2.973 13.623,-3.027 13.854,-3.038C13.914,-2.65 14,-2.267 14.108,-1.895C13.919,-1.906 13.72,-1.879 13.521,-1.804C12.783,-1.535 12.211,-0.667 11.436,-0.824C10.994,-0.914 10.698,-1.325 10.353,-1.621C9.136,-2.655 7.277,-2.316 6.152,-1.335C5.074,-0.398 4.654,0.615 3.491,1.337C2.392,2.021 1.487,2.705 1.099,4.014C0.975,4.445 0.911,4.908 0.625,5.258C0.35,5.587 -0.075,5.749 -0.388,6.045C-0.819,6.46 -0.964,7.074 -1.104,7.682C-1.207,6.918 -1.276,6.141 -1.309,5.355C-1.266,5.306 -1.223,5.263 -1.18,5.215C-0.964,5.01 -0.738,4.865 -0.56,4.747C-0.447,4.671 -0.302,4.58 -0.258,4.526C-0.199,4.45 -0.135,4.208 -0.086,4.014C-0.054,3.901 -0.027,3.793 0,3.691" style="fill-rule:nonzero;"/>
                    </g>
                    <g transform="matrix(1,0,0,1,332.065,536.407)">
                        <path d="M0,23.223C0,9.869 10.865,-0.996 24.218,-0.996C37.572,-0.996 48.432,9.869 48.432,23.223C48.432,23.557 48.421,23.891 48.41,24.219C48.125,24.074 47.833,23.939 47.542,23.81C47.031,23.573 46.546,23.352 46.153,23.067C45.856,22.851 45.571,22.571 45.27,22.275C45.162,22.167 45.049,22.059 44.941,21.952C43.524,20.6 41.897,19.571 40.325,18.575C39.511,18.057 38.272,17.276 36.85,17.443C35.832,17.562 35.045,18.111 34.345,18.596C33.764,19.005 33.268,19.361 32.815,19.333C32.563,19.323 32.282,19.188 31.97,19.01C32.794,17.648 33.263,16.048 33.263,14.346C33.263,9.326 29.18,5.243 24.165,5.243C19.15,5.243 15.066,9.326 15.066,14.346C15.066,14.835 15.104,15.315 15.185,15.784C14.954,15.794 14.711,15.848 14.458,15.94C14.021,16.102 13.682,16.349 13.38,16.571C13.262,16.661 13.09,16.786 12.982,16.845C12.912,16.791 12.815,16.7 12.745,16.629C12.643,16.527 12.535,16.425 12.427,16.333C10.666,14.83 8.177,15.364 6.728,16.619C6.2,17.077 5.818,17.545 5.479,17.954C5.058,18.466 4.729,18.865 4.218,19.183C3.087,19.883 1.842,20.778 1.331,22.512C1.304,22.614 1.277,22.722 1.245,22.835C1.196,23.029 1.131,23.271 1.072,23.347C1.029,23.401 0.884,23.493 0.771,23.568C0.593,23.686 0.366,23.831 0.151,24.036C0.108,24.084 0.065,24.127 0.021,24.176C0.011,23.859 0,23.54 0,23.223" style="fill:rgb(71,166,198);fill-rule:nonzero;"/>
                    </g>
                    <g transform="matrix(1,0,0,1,331.903,571.179)">
                        <path d="M0,-1.142L2.516,-1.142C2.699,-0.754 2.893,-0.372 3.098,0L0.522,0C0.339,-0.377 0.167,-0.76 0,-1.142" style="fill-rule:nonzero;"/>
                    </g>
                    <g transform="matrix(1,0,0,1,330.471,564.036)">
                        <path d="M0,1.617C0.431,1.363 0.598,0.9 1.023,0.56C1.524,0.162 1.675,-0.479 1.821,-1.125C1.917,-0.414 2.047,0.286 2.203,0.975C2.074,1.142 1.923,1.309 1.74,1.455C1.654,1.525 1.562,1.643 1.46,1.773C1.228,2.069 0.883,2.489 0.291,2.742C0.188,2.371 0.091,1.994 0,1.617" style="fill-rule:nonzero;"/>
                    </g>
                    <g transform="matrix(1,0,0,1,332.086,565.652)">
                        <path d="M0,-5.069C0.033,-4.283 0.103,-3.507 0.205,-2.742C0.06,-2.095 -0.091,-1.455 -0.592,-1.056C-1.018,-0.716 -1.185,-0.254 -1.616,0C-1.718,-0.442 -1.81,-0.889 -1.891,-1.341C-1.745,-1.53 -1.562,-1.746 -1.303,-1.95C-1.115,-2.101 -1.013,-2.559 -0.91,-3.006C-0.759,-3.647 -0.571,-4.439 0,-5.069" style="fill-rule:nonzero;"/>
                    </g>
                    <g transform="matrix(1,0,0,1,330.196,533.123)">
                        <path d="M0,31.188C-0.274,29.664 -0.42,28.101 -0.42,26.507C-0.42,11.888 11.468,0 26.087,0C40.702,0 52.59,11.888 52.59,26.507C52.59,27.369 52.547,28.22 52.466,29.06C51.836,28.458 51.114,27.94 50.306,27.52C50.295,27.514 50.284,27.509 50.279,27.503C50.29,27.175 50.301,26.841 50.301,26.507C50.301,13.154 39.441,2.289 26.087,2.289C12.734,2.289 1.869,13.154 1.869,26.507C1.869,26.825 1.88,27.143 1.891,27.46C1.32,28.09 1.131,28.882 0.98,29.524C0.878,29.97 0.776,30.428 0.587,30.58C0.329,30.784 0.146,31 0,31.188" style="fill-rule:nonzero;"/>
                    </g>
                </g>
                <g transform="matrix(1,0,0,1,398.649,555.142)">
                    <path d="M0,-15.699C1.305,-15.699 2.542,-15.385 3.418,-15.047L5.15,-15.609L5.758,-10.683L4.363,-10.436L3.239,-12.303C2.654,-13.293 1.844,-13.81 0.787,-13.81C-1.012,-13.81 -2.159,-12.213 -2.159,-8.187C-2.159,-4.071 -0.854,-1.957 0.787,-1.957C1.709,-1.957 2.519,-2.519 3.149,-3.261L4.746,-5.174L6.118,-4.723L4.521,-0.023L3.396,-0.585C2.114,-0.248 0.967,0 -0.54,0C-5.173,0 -8.344,-2.609 -8.344,-7.288C-8.344,-12.91 -4.318,-15.699 0,-15.699" style="fill:rgb(35,31,32);fill-rule:nonzero;"/>
                </g>
                <g transform="matrix(1,0,0,1,411.648,551.947)">
                    <path d="M0,-9.289L-1.844,-3.486L1.777,-3.486L0,-9.289ZM4.454,-12.123L8.479,0.315C8.659,0.765 8.862,1.034 9.334,1.237L9.986,1.507L10.054,2.834L1.057,2.834L1.147,1.507L2.834,0.944C2.992,0.832 2.947,0.27 2.744,-0.337L2.227,-2.002L-2.316,-2.002L-2.946,-0.045C-3.036,0.225 -3.059,0.428 -3.059,0.63C-3.059,0.899 -2.924,1.148 -2.631,1.215L-1.259,1.507L-1.169,2.834L-7.084,2.834L-7.017,1.507L-6.163,1.215C-5.713,1.08 -5.398,0.765 -5.218,0.315L-1.147,-10.931L-1.754,-12.123L4.454,-12.123Z" style="fill:rgb(35,31,32);fill-rule:nonzero;"/>
                </g>
                <g transform="matrix(1,0,0,1,428.696,555.142)">
                    <path d="M0,-15.722C1.484,-15.722 3.059,-15.385 4.116,-15.025L5.826,-15.61C5.826,-14.125 5.713,-11.629 5.646,-10.076L4.229,-9.987C3.576,-13.046 2.114,-13.878 0.675,-13.878C-0.405,-13.878 -1.035,-13.428 -1.035,-12.529C-1.035,-11.493 -0.112,-11.112 1.732,-10.009C4.656,-8.278 6.32,-6.995 6.32,-4.724C6.32,-1.89 3.914,0 -0.067,0C-1.507,0 -3.194,-0.226 -4.386,-0.653L-5.735,-0.114C-6.185,-1.98 -6.478,-4.274 -6.478,-5.871L-5.083,-5.984C-4.363,-3.082 -2.452,-1.868 -0.72,-1.868C0.337,-1.868 0.967,-2.318 0.967,-3.082C0.967,-4.251 -0.742,-5.084 -2.609,-6.231C-4.656,-7.491 -6.14,-8.705 -6.14,-11.022C-6.14,-14.327 -3.261,-15.722 0,-15.722" style="fill:rgb(35,31,32);fill-rule:nonzero;"/>
                </g>
                <g transform="matrix(1,0,0,1,442.145,551.947)">
                    <path d="M0,-9.289L-1.844,-3.486L1.777,-3.486L0,-9.289ZM4.454,-12.123L8.479,0.315C8.659,0.765 8.862,1.034 9.334,1.237L9.986,1.507L10.054,2.834L1.057,2.834L1.147,1.507L2.834,0.944C2.992,0.832 2.947,0.27 2.744,-0.337L2.227,-2.002L-2.316,-2.002L-2.946,-0.045C-3.036,0.225 -3.059,0.428 -3.059,0.63C-3.059,0.899 -2.924,1.148 -2.631,1.215L-1.259,1.507L-1.169,2.834L-7.084,2.834L-7.017,1.507L-6.163,1.215C-5.713,1.08 -5.398,0.765 -5.218,0.315L-1.147,-10.931L-1.754,-12.123L4.454,-12.123Z" style="fill:rgb(35,31,32);fill-rule:nonzero;"/>
                </g>
                <g transform="matrix(1,0,0,1,398.649,574.265)">
                    <path d="M0,-15.698C1.305,-15.698 2.542,-15.384 3.418,-15.046L5.15,-15.608L5.758,-10.682L4.363,-10.435L3.239,-12.302C2.654,-13.292 1.844,-13.809 0.787,-13.809C-1.012,-13.809 -2.159,-12.212 -2.159,-8.186C-2.159,-4.07 -0.854,-1.956 0.787,-1.956C1.709,-1.956 2.519,-2.518 3.149,-3.26L4.746,-5.173L6.118,-4.722L4.521,-0.022L3.396,-0.584C2.114,-0.247 0.967,0 -0.54,0C-5.173,0 -8.344,-2.608 -8.344,-7.287C-8.344,-12.909 -4.318,-15.698 0,-15.698" style="fill:rgb(35,31,32);fill-rule:nonzero;"/>
                </g>
                <g transform="matrix(1,0,0,1,413.087,567.18)">
                    <path d="M0,-1.192L0.99,-1.214L1.327,-1.214C1.935,-1.237 2.474,-2.181 2.474,-3.824C2.474,-5.893 1.777,-6.86 0.833,-6.86C0.742,-6.86 0.63,-6.86 0.473,-6.838C0.27,-6.77 0.158,-6.613 0.158,-6.342L0,-1.192ZM-3.284,-8.232C-1.687,-8.232 0.382,-8.457 1.979,-8.457C5.713,-8.457 7.85,-7.107 7.85,-4.746C7.85,-2.766 6.478,-1.439 4.813,-0.585C5.803,0.855 7.22,2.631 8.435,3.779C9.401,4.701 10.121,5.196 10.729,5.465L10.526,6.725C10.031,6.995 9.064,7.265 7.985,7.265C6.23,7.265 4.341,6.545 3.216,5.061C2.497,4.116 1.417,2.137 0.742,0.495L-0.045,0.472L-0.135,3.801C-0.157,4.543 0,4.903 0.833,5.106L2.069,5.398L2.137,6.725L-7.332,6.725L-7.242,5.398L-6.342,5.128C-5.667,4.926 -5.488,4.521 -5.488,3.801L-5.353,-5.286C-5.353,-6.028 -5.555,-6.41 -6.252,-6.635L-7.107,-6.905L-7.175,-8.232L-3.284,-8.232Z" style="fill:rgb(35,31,32);fill-rule:nonzero;"/>
                </g>
                <g transform="matrix(1,0,0,1,433.126,573.905)">
                    <path d="M0,-14.957L-0.09,-13.63L-0.967,-13.36C-1.642,-13.157 -1.777,-12.775 -1.799,-12.056L-2.114,-2.924C-2.137,-2.204 -1.957,-1.867 -1.169,-1.597L-0.36,-1.327L-0.292,0L-9.312,0L-9.222,-1.327L-8.322,-1.597C-7.647,-1.799 -7.467,-2.204 -7.467,-2.924L-7.333,-12.011C-7.333,-12.753 -7.535,-13.135 -8.232,-13.36L-9.086,-13.63L-9.154,-14.957L0,-14.957Z" style="fill:rgb(35,31,32);fill-rule:nonzero;"/>
                </g>
                <g transform="matrix(1,0,0,1,441.065,574.265)">
                    <path d="M0,-15.721C1.484,-15.721 3.059,-15.384 4.116,-15.024L5.826,-15.609C5.826,-14.124 5.713,-11.628 5.646,-10.076L4.229,-9.986C3.576,-13.045 2.114,-13.877 0.675,-13.877C-0.405,-13.877 -1.035,-13.427 -1.035,-12.528C-1.035,-11.492 -0.112,-11.111 1.732,-10.008C4.656,-8.277 6.32,-6.994 6.32,-4.723C6.32,-1.889 3.914,0 -0.067,0C-1.507,0 -3.194,-0.225 -4.386,-0.652L-5.735,-0.113C-6.185,-1.979 -6.478,-4.273 -6.478,-5.87L-5.083,-5.983C-4.363,-3.081 -2.452,-1.867 -0.72,-1.867C0.337,-1.867 0.967,-2.317 0.967,-3.081C0.967,-4.25 -0.742,-5.083 -2.609,-6.23C-4.656,-7.49 -6.14,-8.704 -6.14,-11.021C-6.14,-14.326 -3.261,-15.721 0,-15.721" style="fill:rgb(35,31,32);fill-rule:nonzero;"/>
                </g>
                <g transform="matrix(1,0,0,1,450.938,558.544)">
                    <path d="M0,15.361L0.09,14.034L1.147,13.764C1.822,13.585 2.069,13.157 2.069,12.437L2.204,3.148C2.204,2.72 2.182,2.406 2.137,2.069L1.147,2.114C0.292,2.159 -0.09,2.518 -0.337,3.238L-1.012,5.128L-2.407,5.06L-2.272,0L-0.922,0.404L10.953,0.404L12.303,0L12.393,5.06L10.998,5.128L10.346,3.238C10.099,2.518 9.716,2.159 8.861,2.114L7.782,2.047C7.759,2.271 7.759,2.451 7.737,2.765L7.422,12.437C7.399,13.157 7.58,13.562 8.389,13.764L9.424,14.034L9.469,15.361L0,15.361Z" style="fill:rgb(35,31,32);fill-rule:nonzero;"/>
                </g>
                <g transform="matrix(1,0,0,1,473.631,573.905)">
                    <path d="M0,-14.957L-0.09,-13.63L-0.967,-13.36C-1.642,-13.157 -1.777,-12.775 -1.799,-12.056L-2.114,-2.924C-2.137,-2.204 -1.957,-1.867 -1.169,-1.597L-0.36,-1.327L-0.292,0L-9.312,0L-9.222,-1.327L-8.322,-1.597C-7.647,-1.799 -7.467,-2.204 -7.467,-2.924L-7.333,-12.011C-7.333,-12.753 -7.535,-13.135 -8.232,-13.36L-9.086,-13.63L-9.154,-14.957L0,-14.957Z" style="fill:rgb(35,31,32);fill-rule:nonzero;"/>
                </g>
                <g transform="matrix(1,0,0,1,482.784,574.152)">
                    <path d="M0,-15.204L-0.427,-13.944L5.038,-6.792L5.105,-12.28C5.105,-13.045 4.903,-13.382 4.116,-13.607L3.148,-13.877L3.081,-15.204L8.884,-15.204L8.794,-13.877L7.917,-13.607C7.242,-13.404 7.084,-13 7.062,-12.28L6.815,-4.79L7.354,-0.516L3.396,0L-3.936,-9.873L-4.049,-3.171C-4.071,-2.406 -3.846,-2.069 -3.059,-1.844L-2.092,-1.574L-2.024,-0.247L-7.827,-0.247L-7.737,-1.574L-6.86,-1.844C-6.185,-2.046 -6.028,-2.451 -6.005,-3.171L-5.78,-11.83C-5.758,-12.797 -6.14,-13.359 -6.86,-13.607L-7.647,-13.877L-7.715,-15.204L0,-15.204Z" style="fill:rgb(35,31,32);fill-rule:nonzero;"/>
                </g>
                <g transform="matrix(1,0,0,1,498.55,571.071)">
                    <path d="M0,-9.289L-1.844,-3.486L1.777,-3.486L0,-9.289ZM4.454,-12.123L8.479,0.315C8.659,0.765 8.862,1.035 9.334,1.237L9.986,1.507L10.054,2.834L1.057,2.834L1.147,1.507L2.834,0.944C2.992,0.832 2.947,0.27 2.744,-0.337L2.227,-2.002L-2.316,-2.002L-2.946,-0.045C-3.036,0.225 -3.059,0.428 -3.059,0.63C-3.059,0.899 -2.924,1.148 -2.631,1.215L-1.259,1.507L-1.169,2.834L-7.084,2.834L-7.017,1.507L-6.163,1.215C-5.713,1.08 -5.398,0.765 -5.218,0.315L-1.147,-10.931L-1.754,-12.123L4.454,-12.123Z" style="fill:rgb(35,31,32);fill-rule:nonzero;"/>
                </g>
                <g transform="matrix(1,0,0,1,391.744,581.235)">
                    <path d="M0,-0.557L0.461,-0.557C0.794,-0.557 0.915,-0.696 0.915,-0.924C0.915,-1.152 0.771,-1.286 0.466,-1.286L0,-1.286L0,-0.557ZM0,0.138L0,1.424L-0.969,1.424L-0.969,-1.981L0.718,-1.981C1.52,-1.981 1.908,-1.551 1.908,-1.037C1.908,-0.568 1.633,-0.327 1.397,-0.23C1.612,-0.155 1.841,0.072 1.841,0.649L1.841,0.791C1.841,1.003 1.848,1.277 1.885,1.424L0.935,1.424C0.877,1.278 0.862,1.031 0.862,0.681L0.862,0.593C0.862,0.299 0.792,0.138 0.352,0.138L0,0.138Z" style="fill:rgb(35,31,32);fill-rule:nonzero;"/>
                </g>
                <g transform="matrix(1,0,0,1,396.906,580.632)">
                    <path d="M0,0.649L-1.551,0.649L-1.551,1.288L0.18,1.288L0.069,2.027L-2.511,2.027L-2.511,-1.378L0.066,-1.378L0.066,-0.638L-1.551,-0.638L-1.551,-0.09L0,-0.09L0,0.649Z" style="fill:rgb(35,31,32);fill-rule:nonzero;"/>
                </g>
                <g transform="matrix(1,0,0,1,398.554,580.286)">
                    <path d="M0,1.342C0.057,1.639 0.265,1.764 0.587,1.764C0.889,1.764 1.028,1.658 1.028,1.46C1.028,1.237 0.877,1.152 0.339,1.024C-0.666,0.78 -0.866,0.413 -0.866,-0.045C-0.866,-0.616 -0.446,-1.095 0.502,-1.095C1.487,-1.095 1.89,-0.595 1.937,-0.058L0.973,-0.058C0.947,-0.241 0.854,-0.427 0.5,-0.427C0.271,-0.427 0.131,-0.341 0.131,-0.156C0.131,0.029 0.255,0.1 0.78,0.229C1.83,0.49 2.038,0.868 2.038,1.353C2.038,1.992 1.545,2.437 0.545,2.437C-0.396,2.437 -0.896,1.997 -0.971,1.342L0,1.342Z" style="fill:rgb(35,31,32);fill-rule:nonzero;"/>
                </g>
                <g transform="matrix(1,0,0,1,401.941,581.919)">
                    <path d="M0,-1.925L-0.973,-1.925L-0.973,-2.665L1.963,-2.665L1.963,-1.925L0.999,-1.925L0.999,0.74L0,0.74L0,-1.925Z" style="fill:rgb(35,31,32);fill-rule:nonzero;"/>
                </g>
                <g transform="matrix(1,0,0,1,405.888,580.655)">
                    <path d="M0,0.603C-0.16,0.068 -0.291,-0.408 -0.368,-0.74L-0.382,-0.74C-0.461,-0.373 -0.591,0.113 -0.729,0.603L0,0.603ZM-0.894,1.342L-1.091,2.004L-2.063,2.004L-0.987,-1.401L0.305,-1.401L1.423,2.004L0.381,2.004L0.175,1.342L-0.894,1.342Z" style="fill:rgb(35,31,32);fill-rule:nonzero;"/>
                </g>
                <g transform="matrix(1,0,0,1,408.756,582.723)">
                    <path d="M0,-3.469L0,-1.375C0,-0.888 0.24,-0.721 0.543,-0.721C0.87,-0.721 1.061,-0.92 1.061,-1.375L1.061,-3.469L2.063,-3.469L2.063,-1.476C2.063,-0.344 1.394,0 0.526,0C-0.374,0 -0.999,-0.365 -0.999,-1.471L-0.999,-3.469L0,-3.469Z" style="fill:rgb(35,31,32);fill-rule:nonzero;"/>
                </g>
                <g transform="matrix(1,0,0,1,412.651,581.235)">
                    <path d="M0,-0.557L0.461,-0.557C0.794,-0.557 0.915,-0.696 0.915,-0.924C0.915,-1.152 0.771,-1.286 0.466,-1.286L0,-1.286L0,-0.557ZM0,0.138L0,1.424L-0.969,1.424L-0.969,-1.981L0.718,-1.981C1.52,-1.981 1.908,-1.551 1.908,-1.037C1.908,-0.568 1.633,-0.327 1.397,-0.23C1.612,-0.155 1.841,0.072 1.841,0.649L1.841,0.791C1.841,1.003 1.848,1.277 1.885,1.424L0.935,1.424C0.877,1.278 0.862,1.031 0.862,0.681L0.862,0.593C0.862,0.299 0.792,0.138 0.352,0.138L0,0.138Z" style="fill:rgb(35,31,32);fill-rule:nonzero;"/>
                </g>
                <g transform="matrix(1,0,0,1,417.114,580.655)">
                    <path d="M0,0.603C-0.16,0.068 -0.291,-0.408 -0.368,-0.74L-0.381,-0.74C-0.46,-0.373 -0.59,0.113 -0.729,0.603L0,0.603ZM-0.894,1.342L-1.09,2.004L-2.063,2.004L-0.986,-1.401L0.305,-1.401L1.424,2.004L0.382,2.004L0.175,1.342L-0.894,1.342Z" style="fill:rgb(35,31,32);fill-rule:nonzero;"/>
                </g>
                <g transform="matrix(1,0,0,1,419.088,579.254)">
                    <path d="M0,3.405L0,0L1.194,0C1.552,0.767 2.071,1.803 2.214,2.222L2.231,2.222C2.193,1.869 2.184,1.267 2.184,0.724L2.184,0L3.094,0L3.094,3.405L1.956,3.405C1.667,2.789 1.051,1.511 0.891,1.061L0.878,1.061C0.91,1.382 0.913,2.041 0.913,2.64L0.913,3.405L0,3.405Z" style="fill:rgb(35,31,32);fill-rule:nonzero;"/>
                </g>
                <g transform="matrix(1,0,0,1,423.787,581.919)">
                    <path d="M0,-1.925L-0.974,-1.925L-0.974,-2.665L1.963,-2.665L1.963,-1.925L0.999,-1.925L0.999,0.74L0,0.74L0,-1.925Z" style="fill:rgb(35,31,32);fill-rule:nonzero;"/>
                </g>
                <g transform="matrix(1,0,0,1,428.867,580.632)">
                    <path d="M0,0.649L-1.551,0.649L-1.551,1.288L0.18,1.288L0.069,2.027L-2.511,2.027L-2.511,-1.378L0.066,-1.378L0.066,-0.638L-1.551,-0.638L-1.551,-0.09L0,-0.09L0,0.649Z" style="fill:rgb(35,31,32);fill-rule:nonzero;"/>
                </g>
                <g transform="matrix(1,0,0,1,441.324,580.655)">
                    <path d="M0,0.603C-0.16,0.068 -0.291,-0.408 -0.368,-0.74L-0.381,-0.74C-0.46,-0.373 -0.59,0.113 -0.729,0.603L0,0.603ZM-0.894,1.342L-1.09,2.004L-2.063,2.004L-0.986,-1.401L0.305,-1.401L1.424,2.004L0.382,2.004L0.175,1.342L-0.894,1.342Z" style="fill:rgb(35,31,32);fill-rule:nonzero;"/>
                </g>
                <g transform="matrix(1,0,0,1,443.298,582.659)">
                    <path d="M0,-3.405L1,-3.405L1,-0.739L2.605,-0.739L2.498,0L0,0L0,-3.405Z" style="fill:rgb(35,31,32);fill-rule:nonzero;"/>
                </g>
                <g transform="matrix(1,0,0,1,447.323,580.971)">
                    <path d="M0,-0.027C0,0.598 0.208,1.034 0.701,1.034C1.22,1.034 1.391,0.572 1.391,-0.008C1.391,-0.63 1.209,-1.06 0.688,-1.06C0.204,-1.06 0,-0.661 0,-0.027M2.417,-0.016C2.417,0.947 1.836,1.752 0.67,1.752C-0.475,1.752 -1.029,0.952 -1.029,-0.012C-1.029,-0.992 -0.422,-1.779 0.721,-1.779C1.794,-1.779 2.417,-1.035 2.417,-0.016" style="fill:rgb(35,31,32);fill-rule:nonzero;"/>
                </g>
                <g transform="matrix(1,0,0,1,451.759,580.471)">
                    <path d="M0,1.024C0,1.846 -0.282,2.241 -1.157,2.241C-1.337,2.241 -1.54,2.226 -1.651,2.197L-1.651,1.475C-1.583,1.483 -1.449,1.492 -1.352,1.492C-1.055,1.492 -0.995,1.313 -0.995,1.078L-0.995,-1.217L0,-1.217L0,1.024Z" style="fill:rgb(35,31,32);fill-rule:nonzero;"/>
                </g>
                <g transform="matrix(1,0,0,1,454.302,580.655)">
                    <path d="M0,0.603C-0.16,0.068 -0.291,-0.408 -0.368,-0.74L-0.382,-0.74C-0.461,-0.373 -0.591,0.113 -0.729,0.603L0,0.603ZM-0.894,1.342L-1.091,2.004L-2.063,2.004L-0.987,-1.401L0.305,-1.401L1.423,2.004L0.381,2.004L0.175,1.342L-0.894,1.342Z" style="fill:rgb(35,31,32);fill-rule:nonzero;"/>
                </g>
                <g transform="matrix(1,0,0,1,459.138,580.365)">
                    <path d="M0,1.183C0,0.652 0.011,-0.034 0.026,-0.439L0,-0.439C-0.143,0.291 -0.372,1.302 -0.621,2.294L-1.419,2.294C-1.615,1.332 -1.838,0.32 -1.971,-0.438L-2.001,-0.438C-1.973,-0.038 -1.955,0.627 -1.955,1.21L-1.955,2.294L-2.843,2.294L-2.843,-1.111L-1.407,-1.111C-1.239,-0.421 -1.043,0.578 -0.966,1.08L-0.949,1.08C-0.862,0.533 -0.635,-0.371 -0.437,-1.111L0.958,-1.111L0.958,2.294L0,2.294L0,1.183Z" style="fill:rgb(35,31,32);fill-rule:nonzero;"/>
                </g>
                <g transform="matrix(-1,0,0,1,922.984,320.023)">
                    <rect x="460.992" y="259.231" width="1" height="3.405" style="fill:rgb(35,31,32);"/>
                </g>
                <g transform="matrix(1,0,0,1,465.401,580.632)">
                    <path d="M0,0.649L-1.551,0.649L-1.551,1.288L0.18,1.288L0.069,2.027L-2.511,2.027L-2.511,-1.378L0.066,-1.378L0.066,-0.638L-1.551,-0.638L-1.551,-0.09L0,-0.09L0,0.649Z" style="fill:rgb(35,31,32);fill-rule:nonzero;"/>
                </g>
                <g transform="matrix(1,0,0,1,466.227,579.254)">
                    <path d="M0,3.405L0,0L1.194,0C1.552,0.767 2.071,1.803 2.214,2.222L2.231,2.222C2.193,1.869 2.184,1.267 2.184,0.724L2.184,0L3.094,0L3.094,3.405L1.956,3.405C1.667,2.789 1.051,1.511 0.891,1.061L0.878,1.061C0.91,1.382 0.913,2.041 0.913,2.64L0.913,3.405L0,3.405Z" style="fill:rgb(35,31,32);fill-rule:nonzero;"/>
                </g>
                <g transform="matrix(1,0,0,1,470.926,581.919)">
                    <path d="M0,-1.925L-0.974,-1.925L-0.974,-2.665L1.963,-2.665L1.963,-1.925L0.999,-1.925L0.999,0.74L0,0.74L0,-1.925Z" style="fill:rgb(35,31,32);fill-rule:nonzero;"/>
                </g>
                <g transform="matrix(1,0,0,1,474.277,580.971)">
                    <path d="M0,-0.027C0,0.598 0.208,1.034 0.701,1.034C1.22,1.034 1.391,0.572 1.391,-0.008C1.391,-0.63 1.209,-1.06 0.688,-1.06C0.204,-1.06 0,-0.661 0,-0.027M2.417,-0.016C2.417,0.947 1.836,1.752 0.67,1.752C-0.475,1.752 -1.029,0.952 -1.029,-0.012C-1.029,-0.992 -0.421,-1.779 0.721,-1.779C1.794,-1.779 2.417,-1.035 2.417,-0.016" style="fill:rgb(35,31,32);fill-rule:nonzero;"/>
                </g>
                <g transform="matrix(1,0,0,1,478.192,580.286)">
                    <path d="M0,1.342C0.057,1.639 0.265,1.764 0.587,1.764C0.889,1.764 1.028,1.658 1.028,1.46C1.028,1.237 0.877,1.152 0.339,1.024C-0.666,0.78 -0.866,0.413 -0.866,-0.045C-0.866,-0.616 -0.446,-1.095 0.502,-1.095C1.487,-1.095 1.89,-0.595 1.937,-0.058L0.973,-0.058C0.947,-0.241 0.854,-0.427 0.5,-0.427C0.271,-0.427 0.131,-0.341 0.131,-0.156C0.131,0.029 0.255,0.1 0.78,0.229C1.83,0.49 2.038,0.868 2.038,1.353C2.038,1.992 1.545,2.437 0.545,2.437C-0.396,2.437 -0.896,1.997 -0.971,1.342L0,1.342Z" style="fill:rgb(35,31,32);fill-rule:nonzero;"/>
                </g>
                <g transform="matrix(1,0,0,1,485.29,581.235)">
                    <path d="M0,-0.557L0.461,-0.557C0.794,-0.557 0.915,-0.696 0.915,-0.924C0.915,-1.152 0.771,-1.286 0.466,-1.286L0,-1.286L0,-0.557ZM0,0.138L0,1.424L-0.969,1.424L-0.969,-1.981L0.718,-1.981C1.52,-1.981 1.908,-1.551 1.908,-1.037C1.908,-0.568 1.633,-0.327 1.397,-0.23C1.612,-0.155 1.841,0.072 1.841,0.649L1.841,0.791C1.841,1.003 1.848,1.277 1.885,1.424L0.935,1.424C0.877,1.278 0.862,1.031 0.862,0.681L0.862,0.593C0.862,0.299 0.792,0.138 0.352,0.138L0,0.138Z" style="fill:rgb(35,31,32);fill-rule:nonzero;"/>
                </g>
                <g transform="matrix(1,0,0,1,488.89,582.723)">
                    <path d="M0,-3.469L0,-1.375C0,-0.888 0.24,-0.721 0.543,-0.721C0.87,-0.721 1.061,-0.92 1.061,-1.375L1.061,-3.469L2.063,-3.469L2.063,-1.476C2.063,-0.344 1.394,0 0.526,0C-0.374,0 -0.999,-0.365 -0.999,-1.471L-0.999,-3.469L0,-3.469Z" style="fill:rgb(35,31,32);fill-rule:nonzero;"/>
                </g>
                <g transform="matrix(1,0,0,1,492.785,581.235)">
                    <path d="M0,-0.557L0.461,-0.557C0.794,-0.557 0.915,-0.696 0.915,-0.924C0.915,-1.152 0.771,-1.286 0.466,-1.286L0,-1.286L0,-0.557ZM0,0.138L0,1.424L-0.969,1.424L-0.969,-1.981L0.718,-1.981C1.52,-1.981 1.908,-1.551 1.908,-1.037C1.908,-0.568 1.633,-0.327 1.397,-0.23C1.612,-0.155 1.841,0.072 1.841,0.649L1.841,0.791C1.841,1.003 1.848,1.277 1.885,1.424L0.935,1.424C0.877,1.278 0.862,1.031 0.862,0.681L0.862,0.593C0.862,0.299 0.792,0.138 0.352,0.138L0,0.138Z" style="fill:rgb(35,31,32);fill-rule:nonzero;"/>
                </g>
                <g transform="matrix(1,0,0,1,497.248,580.655)">
                    <path d="M0,0.603C-0.16,0.068 -0.291,-0.408 -0.368,-0.74L-0.381,-0.74C-0.46,-0.373 -0.59,0.113 -0.729,0.603L0,0.603ZM-0.894,1.342L-1.09,2.004L-2.063,2.004L-0.986,-1.401L0.305,-1.401L1.424,2.004L0.382,2.004L0.175,1.342L-0.894,1.342Z" style="fill:rgb(35,31,32);fill-rule:nonzero;"/>
                </g>
                <g transform="matrix(1,0,0,1,499.222,582.659)">
                    <path d="M0,-3.405L1,-3.405L1,-0.739L2.605,-0.739L2.497,0L0,0L0,-3.405Z" style="fill:rgb(35,31,32);fill-rule:nonzero;"/>
                </g>
                <g transform="matrix(1,0,0,1,504.922,580.632)">
                    <path d="M0,0.649L-1.551,0.649L-1.551,1.288L0.18,1.288L0.069,2.027L-2.511,2.027L-2.511,-1.378L0.066,-1.378L0.066,-0.638L-1.551,-0.638L-1.551,-0.09L0,-0.09L0,0.649Z" style="fill:rgb(35,31,32);fill-rule:nonzero;"/>
                </g>
                <g transform="matrix(1,0,0,1,506.569,580.286)">
                    <path d="M0,1.342C0.057,1.639 0.265,1.764 0.587,1.764C0.889,1.764 1.028,1.658 1.028,1.46C1.028,1.237 0.877,1.152 0.339,1.024C-0.666,0.78 -0.866,0.413 -0.866,-0.045C-0.866,-0.616 -0.446,-1.095 0.502,-1.095C1.487,-1.095 1.89,-0.595 1.937,-0.058L0.973,-0.058C0.947,-0.241 0.854,-0.427 0.5,-0.427C0.271,-0.427 0.131,-0.341 0.131,-0.156C0.131,0.029 0.255,0.1 0.78,0.229C1.83,0.49 2.038,0.868 2.038,1.353C2.038,1.992 1.545,2.437 0.545,2.437C-0.396,2.437 -0.896,1.997 -0.971,1.342L0,1.342Z" style="fill:rgb(35,31,32);fill-rule:nonzero;"/>
                </g>
                <g transform="matrix(0,-1,-1,0,434.223,579.66)">
                    <path d="M-1.275,-1.275C-1.978,-1.275 -2.548,-0.704 -2.548,-0C-2.548,0.704 -1.978,1.275 -1.275,1.275C-0.571,1.275 -0,0.704 -0,-0C-0,-0.704 -0.571,-1.275 -1.275,-1.275" style="fill:rgb(35,31,32);fill-rule:nonzero;"/>
                </g>
            </g>
        </g>
    </g>
</svg>
